<svg width="280" height="45" viewBox="0 0 280 45" fill="none" xmlns="http://www.w3.org/2000/svg">
<g clip-path="url(#clip0_1060_61)">
<path d="M4.75889 44.1845L4.57011 20.116C4.56018 19.4781 5.26561 19.0795 5.81207 19.4183C12.2702 23.3749 18.6589 27.2917 25.1766 31.2981C25.6933 31.617 25.6933 32.3645 25.1866 32.6834C18.7781 36.7596 12.459 40.776 6.01079 44.8721C5.47427 45.211 4.76883 44.8323 4.75889 44.1845Z" fill="#FDC300"/>
<path d="M38.7884 24.8898L38.5997 0.821284C38.5897 0.183444 39.2951 -0.215207 39.8416 0.123646C46.2998 4.08025 52.6884 7.99698 59.2062 12.0034C59.7228 12.3223 59.7228 13.0698 59.2161 13.3887C52.8076 17.4649 46.4885 21.4813 40.0403 25.5874C39.5037 25.9163 38.7984 25.5376 38.7884 24.8898Z" fill="#FDC300"/>
<path d="M29.5681 24.8799L29.3793 0.811368C29.3694 0.173528 28.6739 -0.215156 28.1274 0.133663C21.7289 4.19989 15.4098 8.21629 8.95168 12.3124C8.44496 12.6313 8.44497 13.3788 8.96162 13.6977C15.4297 17.6743 21.8183 21.591 28.3262 25.5875C28.8726 25.9163 29.5681 25.5177 29.5681 24.8799Z" fill="#757575"/>
<path d="M73.891 44.1845L73.7022 20.116C73.6923 19.4781 74.3977 19.0795 74.9441 19.4183C81.4023 23.3749 87.7909 27.2917 94.3087 31.2981C94.8253 31.617 94.8254 32.3645 94.3186 32.6834C87.9102 36.7596 81.5911 40.776 75.1429 44.8721C74.6063 45.211 73.9009 44.8323 73.891 44.1845Z" fill="#FDC300"/>
<path d="M64.6708 44.1745L64.4821 20.106C64.4721 19.4682 63.7766 19.0795 63.2302 19.4283C56.8316 23.4946 50.5126 27.511 44.0544 31.6071C43.5477 31.926 43.5477 32.6735 44.0643 32.9924C50.5324 36.9689 56.921 40.8857 63.4289 44.8821C63.9754 45.211 64.6708 44.8124 64.6708 44.1745Z" fill="#757575"/>
<path d="M107.97 24.8898L107.781 0.821284C107.771 0.183444 108.477 -0.215207 109.023 0.123646C115.482 4.08025 121.87 7.99698 128.388 12.0034C128.905 12.3223 128.905 13.0698 128.398 13.3887C121.989 17.4649 115.67 21.4813 109.222 25.5874C108.686 25.9163 107.98 25.5376 107.97 24.8898Z" fill="#FDC300"/>
<path d="M98.75 24.8799L98.5612 0.811368C98.5513 0.173528 97.8558 -0.215156 97.3093 0.133663C90.9108 4.19989 84.5917 8.21629 78.1336 12.3124C77.6268 12.6313 77.6269 13.3788 78.1435 13.6977C84.6116 17.6743 91.0002 21.591 97.5081 25.5875C98.0545 25.9163 98.75 25.5177 98.75 24.8799Z" fill="#757575"/>
<path d="M143.798 44.1845L143.609 20.116C143.599 19.4781 144.305 19.0795 144.851 19.4183C151.309 23.3749 157.698 27.2917 164.216 31.2981C164.733 31.617 164.733 32.3645 164.226 32.6834C157.817 36.7596 151.498 40.776 145.05 44.8721C144.513 45.211 143.808 44.8323 143.798 44.1845Z" fill="#FDC300"/>
<path d="M134.578 44.1745L134.389 20.106C134.379 19.4682 133.684 19.0795 133.137 19.4283C126.739 23.4946 120.42 27.511 113.962 31.6071C113.455 31.926 113.455 32.6735 113.971 32.9924C120.44 36.9689 126.828 40.8857 133.336 44.8821C133.882 45.211 134.578 44.8124 134.578 44.1745Z" fill="#757575"/>
<path d="M177.947 24.8898L177.758 0.821284C177.748 0.183444 178.454 -0.215207 179 0.123646C185.458 4.08025 191.847 7.99698 198.365 12.0034C198.881 12.3223 198.881 13.0698 198.375 13.3887C191.966 17.4649 185.647 21.4813 179.199 25.5874C178.662 25.9163 177.957 25.5376 177.947 24.8898Z" fill="#FDC300"/>
<path d="M168.727 24.8799L168.538 0.811368C168.528 0.173528 167.832 -0.215156 167.286 0.133663C160.887 4.19989 154.568 8.21629 148.11 12.3124C147.604 12.6313 147.604 13.3788 148.12 13.6977C154.588 17.6743 160.977 21.591 167.485 25.5875C168.031 25.9163 168.727 25.5177 168.727 24.8799Z" fill="#757575"/>
<path d="M247.962 24.8898L247.773 0.821284C247.764 0.183444 248.469 -0.215207 249.015 0.123646C255.474 4.08025 261.862 7.99698 268.38 12.0034C268.897 12.3223 268.897 13.0698 268.39 13.3887C261.981 17.4649 255.662 21.4813 249.214 25.5874C248.678 25.9163 247.972 25.5376 247.962 24.8898Z" fill="#FDC300"/>
<path d="M274.57 44.1745L274.381 20.106C274.371 19.4682 273.676 19.0795 273.129 19.4283C266.731 23.4946 260.412 27.511 253.954 31.6071C253.447 31.926 253.447 32.6735 253.964 32.9924C260.432 36.9689 266.82 40.8857 273.328 44.8821C273.875 45.211 274.57 44.8124 274.57 44.1745Z" fill="#757575"/>
<path d="M213.834 44.1845L213.646 20.116C213.636 19.4781 214.341 19.0795 214.888 19.4183C221.346 23.3749 227.734 27.2917 234.252 31.2981C234.769 31.617 234.769 32.3645 234.262 32.6834C227.854 36.7596 221.535 40.776 215.086 44.8721C214.55 45.211 213.834 44.8323 213.834 44.1845Z" fill="#FDC300"/>
<path d="M204.604 44.1745L204.415 20.106C204.406 19.4682 203.71 19.0795 203.164 19.4283C196.765 23.4946 190.446 27.511 183.988 31.6071C183.481 31.926 183.481 32.6735 183.998 32.9924C190.466 36.9689 196.854 40.8857 203.362 44.8821C203.919 45.211 204.614 44.8124 204.604 44.1745Z" fill="#757575"/>
<path d="M238.634 24.8799L238.445 0.811368C238.435 0.173528 237.74 -0.215156 237.193 0.133663C230.795 4.19989 224.476 8.21629 218.017 12.3124C217.511 12.6313 217.511 13.3788 218.027 13.6977C224.495 17.6743 230.884 21.591 237.392 25.5875C237.938 25.9163 238.644 25.5177 238.634 24.8799Z" fill="#757575"/>
</g>
<defs>
<clipPath id="clip0_1060_61">
<rect width="279.14" height="45" fill="white"/>
</clipPath>
</defs>
</svg>
