<svg width="41" height="41" viewBox="0 0 100 100" fill="none" xmlns="http://www.w3.org/2000/svg">
    <rect x="2.5" y="2.5" width="95" height="95" rx="47.5" fill="#1C1D20" stroke="#F9BC07" stroke-width="5"/>
    <path d="M47.294 45.4958L60.006 38.7251C60.275 38.5905 60.5665 38.5905 60.8355 38.7251L75.4083 46.7513C75.6549 46.8858 75.7894 47.1324 75.7894 47.4015V68.9468C75.7894 69.1261 75.6998 69.3055 75.5204 69.4176L62.4721 76.9506C62.2704 77.0851 62.0013 76.9282 62.0013 76.6816L62.0238 55.0466C62.0238 54.8448 61.9341 54.6655 61.7547 54.5758L47.2716 46.0787C47.0474 45.9442 47.0698 45.6303 47.294 45.4958Z" fill="#6B6B6C"/>
    <path d="M47.7648 48.1862L57.6519 53.8583C57.9434 54.0377 57.921 54.4413 57.6295 54.5982L47.6976 59.5754C47.4285 59.7099 47.1147 59.5081 47.1147 59.2166V48.5449C47.1147 48.2086 47.4734 48.0068 47.7648 48.1862Z" fill="#FCC300"/>
    <path d="M24.6502 36.4383L51.4417 22.1345C51.8004 21.9552 52.2264 21.9552 52.5851 22.1345L66.5974 29.6003C66.9113 29.7796 66.9113 30.228 66.6198 30.4074L39.918 45.294C39.6714 45.4286 39.5368 45.6752 39.5368 45.9442L39.5817 76.1435C39.5817 76.704 39.1333 76.8834 38.64 76.5919L24.2466 69.0589C24.0897 68.9916 24 68.8347 24 68.6778L24.0224 37.5144C24.0224 37.066 24.269 36.6625 24.6502 36.4383Z" fill="#FCC300"/>
</svg>